<svg width="1432" height="311" viewBox="0 0 1432 311" fill="none" xmlns="http://www.w3.org/2000/svg">
<g clip-path="url(#clip0_98_1559)">
<path d="M151.293 305.168L113.243 186.878L104.184 150.667H109.62L100.56 186.878L62.2084 305.168H0L71.5698 99.9716H145.555L217.125 305.168H151.293ZM60.3965 273.483V227.314H152.501V273.483H60.3965Z" fill="#F2F2F2"/>
<path d="M229.205 305.168V141.313H287.789V305.168H229.205ZM287.789 224.9H275.71C275.71 203.354 278.247 186.094 283.259 172.997C288.272 159.901 294.735 150.426 302.586 144.511C310.438 138.597 318.712 135.579 327.349 135.579C330.791 135.579 333.992 136.062 337.012 136.967C340.032 137.873 342.327 139.321 343.958 141.313V190.198C340.938 189.594 337.979 189.111 335.08 188.809C332.181 188.508 328.678 188.327 324.631 188.327C318.41 188.327 312.974 189.111 308.324 190.741C303.673 192.37 299.868 194.724 296.849 197.802C293.829 200.94 291.534 204.742 290.084 209.269C288.635 213.795 287.789 218.985 287.789 224.84V224.9Z" fill="#F2F2F2"/>
<path d="M348.487 185.369V141.313H457.201V185.369H348.487ZM366.606 248.135V103.291H425.191V238.781C425.191 245.601 426.52 250.972 429.117 254.895C431.714 258.818 437.451 260.749 446.33 260.749H457.201V305.107C454 306.496 449.349 307.823 443.31 309.03C437.27 310.237 430.445 310.841 422.775 310.841C403.871 310.841 389.738 305.409 380.497 294.546C371.257 283.683 366.606 268.172 366.606 248.075V248.135Z" fill="#F2F2F2"/>
<path d="M475.32 305.168V141.313H533.905V305.168H475.32Z" fill="#F2F2F2"/>
<path d="M710.866 201.966H652.282C651.255 194.12 649.081 188.87 645.638 186.275C642.195 183.68 638.511 182.352 634.465 182.352C627.036 182.352 621.419 185.852 617.674 192.793C613.93 199.733 612.118 209.933 612.118 223.451C612.118 236.97 614.111 246.868 617.976 253.748C621.902 260.689 627.881 264.189 635.975 264.189C640.383 264.189 644.068 262.801 646.967 260.085C649.866 257.369 651.98 253.386 653.188 248.196H711.772C708.329 268.896 699.572 284.588 685.5 295.149C671.427 305.711 654.516 310.962 634.767 310.962C617.856 310.962 603.179 307.401 590.798 300.219C578.417 293.037 568.874 282.958 562.11 269.862C555.345 256.766 552.023 241.316 552.023 223.391C552.023 205.467 555.466 188.809 562.291 175.713C569.116 162.617 578.719 152.659 591.1 145.839C603.481 139.019 617.916 135.579 634.465 135.579C647.571 135.579 659.529 137.993 670.4 142.821C681.272 147.65 690.271 155.012 697.458 164.85C704.585 174.687 709.054 187.059 710.866 201.966Z" fill="#F2F2F2"/>
<path d="M728.985 305.168V87.9012H787.57V305.168H728.985ZM787.57 212.83H775.491C776.517 194.724 779.537 179.998 784.671 168.592C789.805 157.245 796.569 148.857 804.904 143.546C813.238 138.235 822.66 135.519 833.109 135.519C842.953 135.519 852.013 137.631 860.287 141.856C868.562 146.08 875.205 152.659 880.218 161.591C885.231 170.523 887.768 182.05 887.768 196.172V305.107H829.183V207.941C829.183 201.725 828.458 196.716 827.069 193.034C825.68 189.292 823.566 186.576 820.728 184.887C817.889 183.197 814.386 182.292 810.158 182.292C806.957 182.292 803.937 182.955 801.099 184.283C798.26 185.611 795.844 187.542 793.851 190.198C791.858 192.793 790.288 196.052 789.14 199.854C788.053 203.656 787.51 208.001 787.51 212.83H787.57Z" fill="#F2F2F2"/>
<path d="M1014.36 204.984V235.763C1004.51 235.763 996.361 236.367 989.898 237.574C983.436 238.781 978.362 240.41 974.618 242.583C970.873 244.695 968.216 247.109 966.585 249.825C964.954 252.541 964.169 255.498 964.169 258.697C964.169 262.922 965.558 266.422 968.397 269.077C971.236 271.793 975.161 273.181 980.174 273.181C985.187 273.181 989.475 271.854 993.643 269.258C997.75 266.663 1001.07 262.922 1003.61 258.093C1006.14 253.265 1007.35 247.713 1007.35 241.497H1022.75C1021.97 254.171 1019.67 264.913 1015.99 273.604C1012.24 282.355 1007.47 289.476 1001.62 295.029C995.757 300.581 989.113 304.564 981.684 307.099C974.255 309.634 966.464 310.841 958.432 310.841C948.768 310.841 939.95 309.091 931.978 305.53C924.006 302.03 917.664 296.658 912.953 289.537C908.242 282.415 905.887 273.604 905.887 263.103C905.887 252.058 909.208 242.281 915.852 233.832C922.496 225.383 932.582 218.865 946.05 214.218C957.344 210.174 968.457 207.639 979.389 206.493C990.381 205.406 1001.98 204.803 1014.3 204.803L1014.36 204.984ZM970.571 195.931H911.987C913.617 183.438 917.906 172.756 924.972 163.824C932.038 154.892 941.219 147.951 952.573 143.002C963.928 138.054 976.792 135.579 991.106 135.579C1007.41 135.579 1021.12 138.476 1032.18 144.33C1043.23 150.184 1051.62 158.09 1057.36 167.988C1063.1 177.946 1065.94 189.292 1065.94 201.906V263.766C1065.94 275.052 1066.42 283.743 1067.27 289.899C1068.17 296.055 1069.02 301.124 1069.86 305.168H1009.77C1008.98 300.943 1008.38 295.753 1007.96 289.597C1007.53 283.441 1007.35 276.802 1007.35 269.5V201.001C1007.35 194.543 1005.72 189.835 1002.52 186.818C999.32 183.8 994.79 182.291 988.932 182.291C983.073 182.291 979.027 183.619 976.128 186.214C973.229 188.809 971.356 192.068 970.571 195.871V195.931Z" fill="#F2F2F2"/>
<path d="M1190.41 233.651H1202.49C1201.47 251.575 1198.45 266.241 1193.31 277.708C1188.18 289.175 1181.54 297.564 1173.38 302.874C1165.23 308.185 1155.99 310.901 1145.78 310.901C1136.12 310.901 1127.18 308.789 1119.03 304.564C1110.87 300.34 1104.35 293.761 1099.4 284.829C1094.44 275.897 1092.03 264.37 1092.03 250.248V141.313H1150.61V238.479C1150.61 244.514 1151.34 249.463 1152.73 253.265C1154.12 257.067 1156.23 259.844 1158.95 261.594C1161.67 263.284 1164.93 264.189 1168.73 264.189C1171.93 264.189 1174.89 263.525 1177.49 262.197C1180.09 260.87 1182.38 258.938 1184.25 256.283C1186.19 253.688 1187.7 250.429 1188.78 246.627C1189.87 242.824 1190.41 238.479 1190.41 233.651ZM1249 141.313V305.168H1190.41V141.313H1249Z" fill="#F2F2F2"/>
<path d="M1335.06 310.901C1321.35 310.901 1309.4 307.34 1299.13 300.159C1288.86 292.977 1280.95 282.898 1275.45 269.802C1269.9 256.705 1267.12 241.255 1267.12 223.331C1267.12 195.388 1273.34 173.722 1285.84 158.453C1298.34 143.184 1314.71 135.519 1335.06 135.519C1352.16 135.519 1365.56 143.063 1375.23 158.151C1384.89 173.239 1389.72 194.965 1389.72 223.331C1389.72 242.04 1387.43 257.912 1382.96 271.009C1378.43 284.105 1372.03 294.003 1363.81 300.702C1355.54 307.461 1346 310.841 1335.12 310.841L1335.06 310.901ZM1350.16 264.129C1357.83 264.129 1363.57 260.628 1367.56 253.688C1371.48 246.747 1373.42 236.608 1373.42 223.391C1373.42 210.174 1371.48 199.673 1367.56 192.732C1363.63 185.792 1357.83 182.292 1350.16 182.292C1342.49 182.292 1337.06 185.792 1333.07 192.732C1329.14 199.673 1327.21 209.872 1327.21 223.391C1327.21 236.91 1329.21 246.808 1333.07 253.688C1337 260.628 1342.67 264.129 1350.16 264.129ZM1373.42 305.168V87.9012H1432V305.168H1373.42Z" fill="#F2F2F2"/>
</g>
<g clip-path="url(#clip1_98_1559)">
<path fill-rule="evenodd" clip-rule="evenodd" d="M470.331 15.7435C473.359 12.2704 478.152 11.1597 482.148 12.9932C487.668 15.4261 492.772 19.34 496.752 24.5055C497.132 24.9991 497.582 25.528 498.188 25.5457C495.783 26.0217 493.741 27.626 491.855 29.3185C485.903 34.5369 481.526 42.012 479.172 50.2804C477.771 49.0816 476.473 47.6183 474.778 47.0365C473.532 46.6134 472.234 46.7544 470.971 46.9836C468.514 42.0649 465.451 37.3224 461.299 34.2372C462.96 27.3087 466.005 20.8385 470.313 15.7435H470.331Z" fill="#F2F2F2"/>
<path fill-rule="evenodd" clip-rule="evenodd" d="M557.709 61.5106C556.844 59.9063 555.079 61.0699 554.162 61.9337C550.909 65.495 547.881 69.3206 544.732 73.0053C545.009 80.7095 543.624 88.5725 540.372 95.2366C541.583 96.9467 542.206 99.2209 541.842 101.407C540.96 106.943 538.901 112.161 536.046 116.639C541.721 115.899 547.189 113.166 551.307 108.582C556.757 102.412 560.685 94.1964 561.723 85.2757C562.692 77.1836 561.238 68.6683 557.726 61.5282L557.709 61.5106Z" fill="#F2F2F2"/>
<path fill-rule="evenodd" clip-rule="evenodd" d="M527.706 11.7944C524.246 8.76205 519.349 8.3213 515.629 10.7013C510.473 13.8747 505.939 18.4408 502.669 24.1C502.358 24.6466 501.977 25.2107 501.372 25.3341C503.811 25.4928 506.043 26.7974 508.154 28.2078C514.746 32.5624 520.058 39.3851 523.484 47.2481C524.713 45.8729 525.82 44.2333 527.395 43.44C528.571 42.8406 529.886 42.8053 531.149 42.8582C532.949 37.6574 535.337 32.5271 539.039 28.8954C536.478 22.2489 532.603 16.2724 527.671 11.7944H527.706Z" fill="#F2F2F2"/>
<path fill-rule="evenodd" clip-rule="evenodd" d="M447.146 69.1091C447.786 67.399 449.689 68.3158 450.71 69.0386C454.396 72.1238 457.908 75.4912 461.524 78.7174C462.268 86.3864 464.673 93.9849 468.774 100.155C467.805 102.024 467.494 104.351 468.134 106.467C469.743 111.826 472.477 116.727 475.885 120.765C470.175 120.8 464.396 118.861 459.69 114.876C453.478 109.499 448.513 101.901 446.298 93.2092C444.256 85.3286 444.585 76.69 447.128 69.1268L447.146 69.1091Z" fill="#F2F2F2"/>
<path fill-rule="evenodd" clip-rule="evenodd" d="M489.537 3.71981C491.959 1.44555 495.004 0.211464 498.102 0.0527952C501.199 -0.211653 504.382 0.599321 507.082 2.52098C510.231 4.7776 513.086 7.58075 515.629 10.7012C510.473 13.8746 505.94 18.4408 502.67 24.0999C502.358 24.6465 501.977 25.2106 501.372 25.334C500.835 25.334 500.299 25.3164 499.763 25.334C499.226 25.3869 498.707 25.4751 498.171 25.5632C497.565 25.528 497.115 25.0167 496.735 24.5231C492.755 19.3575 487.651 15.4613 482.131 13.0108C484.242 9.57293 486.699 6.39955 489.52 3.73744L489.537 3.71981Z" fill="#F2F2F2"/>
<path fill-rule="evenodd" clip-rule="evenodd" d="M497.825 24.0295C498.447 23.9237 499.053 23.8356 499.676 23.7827C500.299 23.7651 500.922 23.7651 501.545 23.7827C504.4 23.9237 507.012 25.3341 509.469 26.8679C517.169 31.5575 523.346 38.9444 527.325 47.4949C522.308 53.4185 518.691 60.7702 516.996 68.6507C515.664 67.8397 514.314 67.1522 512.964 66.6233C509.798 65.2834 506.234 64.7369 502.721 64.9661H502.6H502.427L502.254 64.9837H502.133C498.621 65.2305 495.16 66.2531 492.201 68.0337C490.938 68.7565 489.692 69.6204 488.464 70.6076C485.73 63.0268 481.197 56.2393 475.435 51.0561C478.238 42.0472 483.394 33.867 490.402 28.1725C492.617 26.3214 495.022 24.576 497.842 24.0295H497.825Z" fill="#F2F2F2"/>
<path fill-rule="evenodd" clip-rule="evenodd" d="M457.475 35.3126C458.41 34.0786 459.984 33.726 461.316 34.2548C465.469 37.3577 468.514 42.1001 470.989 47.0012C469.691 47.6712 468.445 48.6056 467.632 50.016C462.77 58.2667 460.572 68.6507 461.524 78.735C457.925 75.5088 454.413 72.1414 450.71 69.0562C447.872 57.2971 450.796 44.3215 457.458 35.3126H457.475Z" fill="#F2F2F2"/>
<path fill-rule="evenodd" clip-rule="evenodd" d="M470.988 47.0013C472.234 46.7721 473.549 46.631 474.795 47.0541C476.473 47.6359 477.788 49.1168 479.19 50.298C484.138 55.0934 488.049 61.352 490.402 68.3334C483.81 74.0984 478.377 84.2003 476.369 90.547C475.747 92.6097 475.349 94.7253 474.83 96.8233C473.982 96.8585 473.117 96.9643 472.286 97.1935C470.85 97.6342 469.691 98.8154 468.791 100.155C464.69 94.0025 462.285 86.404 461.541 78.7174C460.59 68.6331 462.77 58.2491 467.649 49.9983C468.445 48.5879 469.691 47.6536 471.006 46.9836L470.988 47.0013Z" fill="#F2F2F2"/>
<path fill-rule="evenodd" clip-rule="evenodd" d="M543.019 29.4243C541.929 28.3136 540.32 28.1902 539.074 28.8954C535.371 32.5271 532.966 37.6574 531.184 42.8582C532.568 43.3342 533.918 44.0923 534.904 45.3793C540.822 52.8896 544.351 62.8681 544.749 72.9877C547.898 69.303 550.926 65.4774 554.179 61.9161C555.425 49.8749 550.84 37.4106 543.036 29.4066L543.019 29.4243Z" fill="#F2F2F2"/>
<path fill-rule="evenodd" clip-rule="evenodd" d="M531.167 42.8582C529.904 42.8053 528.572 42.8406 527.412 43.44C525.821 44.251 524.713 45.8905 523.502 47.248C519.246 52.678 516.183 59.4127 514.764 66.6409C521.997 71.3657 528.624 80.3922 531.6 86.739C532.482 88.6959 533.157 90.7409 533.953 92.7508C534.801 92.6802 535.666 92.6626 536.531 92.7508C538.019 92.9799 539.317 94.0025 540.372 95.2013C543.625 88.5372 545.009 80.6743 544.732 72.97C544.352 62.8505 540.805 52.8543 534.887 45.3616C533.901 44.0747 532.551 43.3166 531.167 42.8406V42.8582Z" fill="#F2F2F2"/>
<path fill-rule="evenodd" clip-rule="evenodd" d="M540.372 95.2189C539.316 94.0201 538.001 92.9976 536.531 92.7684C534.212 92.4863 531.911 93.0328 529.662 93.4912C521.201 95.3952 513.414 100.808 507.947 108.547C506.788 110.081 506.338 112.091 505.767 113.977C505.715 113.836 505.611 113.713 505.628 113.572C504.729 118.085 503.76 125.842 510.04 127.94C513.086 128.874 519.142 127.869 522.204 127.252C527.793 125.948 532.586 121.787 536.029 116.604C538.884 112.126 540.943 106.908 541.825 101.372C542.189 99.1856 541.566 96.9114 540.355 95.2013L540.372 95.2189Z" fill="#F2F2F2"/>
<path fill-rule="evenodd" clip-rule="evenodd" d="M468.791 100.155C469.691 98.8155 470.85 97.6343 472.286 97.1935C474.536 96.6117 476.889 96.8233 479.19 96.9819C487.824 97.7048 496.25 102.006 502.687 108.935C504.036 110.293 505.801 111.967 506.597 113.766C506.632 113.625 506.666 113.889 506.597 113.766C509.919 119.672 512.376 125.507 506.442 128.451C503.552 129.791 494.122 129.615 491.008 129.421C485.298 128.892 480.003 125.419 475.903 120.765C472.494 116.727 469.76 111.826 468.151 106.467C467.493 104.351 467.822 102.024 468.791 100.155Z" fill="#F2F2F2"/>
<path fill-rule="evenodd" clip-rule="evenodd" d="M493.499 64.8427C496.094 63.1326 499.14 62.1629 502.22 62.0043C505.299 61.7398 508.431 62.2863 511.234 63.6262C519.764 67.4872 528.122 78.8232 531.582 86.4393C532.534 88.6254 533.243 90.8996 534.126 93.121C524.159 95.1837 514.937 100.878 508.449 108.935C507.082 110.539 506.511 112.62 505.836 114.577C505.784 114.436 505.732 114.294 505.68 114.153C505.645 114.294 505.611 114.436 505.576 114.594C504.642 112.743 503.811 110.751 502.254 109.358C494.745 102.253 484.865 97.8634 474.708 97.1935C475.279 94.8664 475.677 92.5216 476.335 90.2121C478.636 82.6136 485.505 69.8143 493.499 64.8074V64.8427Z" fill="#F2F2F2"/>
<path d="M511.286 64.5959C513.14 64.5959 514.643 63.0646 514.643 61.1757C514.643 59.2868 513.14 57.7555 511.286 57.7555C509.433 57.7555 507.93 59.2868 507.93 61.1757C507.93 63.0646 509.433 64.5959 511.286 64.5959Z" fill="#191919"/>
<path d="M493.863 64.5959C495.716 64.5959 497.219 63.0646 497.219 61.1757C497.219 59.2868 495.716 57.7555 493.863 57.7555C492.009 57.7555 490.506 59.2868 490.506 61.1757C490.506 63.0646 492.009 64.5959 493.863 64.5959Z" fill="#191919"/>
<path d="M504.971 116.622H487.824V145.887H504.971V116.622Z" fill="#F2F2F2"/>
<path fill-rule="evenodd" clip-rule="evenodd" d="M487.823 133.617C487.823 133.617 470.231 139.558 476.762 144.565C477.936 145.464 479.421 145.905 480.926 145.905H487.841" fill="#F2F2F2"/>
<path d="M504.971 145.905H522.221V116.639H504.971V145.905Z" fill="#F2F2F2"/>
<path fill-rule="evenodd" clip-rule="evenodd" d="M522.221 133.617C522.221 133.617 538.658 139.558 532.556 144.565C531.46 145.464 530.071 145.905 528.666 145.905H522.204" fill="#F2F2F2"/>
</g>
<defs>
<clipPath id="clip0_98_1559">
<rect width="1432" height="223" fill="white" transform="translate(0 87.9012)"/>
</clipPath>
<clipPath id="clip1_98_1559">
<rect width="117" height="145.905" fill="white" transform="translate(445)"/>
</clipPath>
</defs>
</svg>
